# xmcd
#
# Track frame offsets: 
#        150
#        16279
#        33457
#
# Disc length: 598 seconds
#
# Revision: 0
# Processed by: cddbd v1.5.2PL0 Copyright (c) Steve Scherf et al.
# Submitted via: ExactAudioCopy v1.1
#
DISCID=1a025403
DTITLE=克美しげる - 蘇る封印歌謡 いったい歌は誰のものなのか CD R-0700562
DYEAR=1900
DGENRE=JPop
TTITLE0=さすらい (新録音)
TTITLE1=おもいやり (新録音)
TTITLE2=エイトマン (新録音)
EXTD=
EXTT0=
EXTT1=
EXTT2=
PLAYORDER=
